Hair Pies (2010)

Cover: 
http://imagebb.org/view.php?filename=659v45v4.jpg

Preview: 
http://imagebb.org/view.php?filename=890Hair_Pies_2010_s.jpg



Info:
Format                           : Windows Media
File size                        : 1.75 GiB
Duration                         : 1h 58mn
Overall bit rate mode            : Constant
Overall bit rate                 : 2 111 Kbps
Maximum Overall bit rate         : 2 123 Kbps
Encoded date                     : UTC 2011-08-16 17:20:43.232

Video
ID                               : 2
Format                           : VC-1
Format profile                   : MP@HL
Codec ID                         : WMV3
Codec ID/Info                    : Windows Media Video 9
Codec ID/Hint                    : WMV3
Description of the codec         : VC-1 - Main Profile
Duration                         : 1h 58mn
Bit rate mode                    : Constant
Bit rate                         : 1 975 Kbps
Width                            : 848 pixels
Height                           : 480 pixels
Display aspect ratio             : 16:9
Frame rate                       : 29.970 fps
Bit depth                        : 8 bits
Scan type                        : Progressive
Compression mode                 : Lossy
Bits/(Pixel*Frame)               : 0.162
Stream size                      : 1.63 GiB (94%)

Audio
ID                               : 1
Format                           : WMA
Format version                   : Version 2
Codec ID                         : 161
Codec ID/Info                    : Windows Media Audio
Description of the codec         : Windows Media Audio 9.2 -  64 kbps, 44 kHz, stereo (A/V) 1-pass CBR
Duration                         : 1h 58mn
Bit rate mode                    : Constant
Bit rate                         : 128 Kbps
Channel(s)                       : 2 channels
Sampling rate                    : 44.1 KHz
Bit depth                        : 16 bits
Stream size                      : 108 MiB (6%)